<?xml version="1.0" encoding="UTF-8" standalone="no"?>
<svg
   viewBox="0 0 100 100"
   xmlns:dc="http://purl.org/dc/elements/1.1/"
   xmlns:cc="http://creativecommons.org/ns#"
   xmlns:rdf="http://www.w3.org/1999/02/22-rdf-syntax-ns#"
   xmlns:svg="http://www.w3.org/2000/svg"
   xmlns="http://www.w3.org/2000/svg"
   xmlns:xlink="http://www.w3.org/1999/xlink"
   xmlns:sodipodi="http://sodipodi.sourceforge.net/DTD/sodipodi-0.dtd"
   xmlns:inkscape="http://www.inkscape.org/namespaces/inkscape"
   width="100"
   height="100"
   sodipodi:docname="VSI.svg"
   id="svg4405"
   version="1.1"
   inkscape:version="0.48.4 r9939">
  <defs
     id="defs4412">
    <script xlink:href="../libs/d3.3.min.js"/>
    <script xlink:href="../socket.io/socket.io.js"/>
    <script xlink:href="../libs/jquery.min.js"/>
    <script
       type="text/javascript"
       id="script4532">
       <![CDATA[
        var indicator = d3.select('#indicator');
        var p = d3.select('#indicator')

        function Update(inputObject){
          for(let i = 0; i < Object.keys(inputObject).length; i++){
            let key = Object.keys(inputObject)[i];
            let value = Object.values(inputObject)[i];
            switch (key) {

              case 'alt':
                //console.log('vertical speed is '+value+' ft/min.');
                value = value / 100;
                d3.select('#indicator')
                  .attr('transform', 'rotate('+value+', 50, 50 )')
                break;

              case 'test':
                d3.select('#indicator')
                  .attr('transform', 'rotate('+value.x+', 50, 50 )')
                break;

              default:
                //console.log('       :-(    Attribute '+key+' not relevant for this element... Ignoring');
            };
          }
        }

        window.onload = setTimeout(function(){
          var socket = io.connect();
          socket.on('chat', function (data) {
            Update(data);
          });
        }, 50);
        

        ]]>
      </script>
    <filter
       id="filter4531"
       inkscape:label="Drop Shadow"
       inkscape:menu="Color"
       inkscape:menu-tooltip="Oversaturate colors which can be fluorescent in real world"
       x="0"
       y="0"
       width="1"
       height="1"
       color-interpolation-filters="sRGB"
       style="color-interpolation-filters:sRGB;">
      <feColorMatrix
         id="feColorMatrix4533"
         type="hueRotate"
         values="0" />
      <feColorMatrix
         id="feColorMatrix4535"
         type="saturate"
         values="1" />
      <feColorMatrix
         id="feColorMatrix4537"
         type="matrix"
         values="2 -1 0 0 0 0 2 -1 0 0 -1 0 2 0 0 0 0 0 1 0 "
         result="fbSourceGraphic" />
      <feColorMatrix
         result="fbSourceGraphicAlpha"
         in="fbSourceGraphic"
         values="0 0 0 -1 0 0 0 0 -1 0 0 0 0 -1 0 0 0 0 1 0"
         id="feColorMatrix4575" />
      <feColorMatrix
         id="feColorMatrix4577"
         type="hueRotate"
         values="0"
         in="fbSourceGraphic" />
      <feColorMatrix
         id="feColorMatrix4579"
         type="saturate"
         values="1" />
      <feColorMatrix
         id="feColorMatrix4581"
         type="matrix"
         values="2 -1 0 0 0 0 2 -1 0 0 -1 0 2 0 0 0 0 0 1 0 "
         result="fbSourceGraphic" />
      <feColorMatrix
         result="fbSourceGraphicAlpha"
         in="fbSourceGraphic"
         values="0 0 0 -1 0 0 0 0 -1 0 0 0 0 -1 0 0 0 0 1 0"
         id="feColorMatrix4641" />
      <feFlood
         id="feFlood4643"
         flood-opacity="0.5"
         flood-color="rgb(255,255,255)"
         result="flood"
         in="fbSourceGraphic" />
      <feComposite
         id="feComposite4645"
         in2="fbSourceGraphic"
         in="flood"
         operator="in"
         result="composite1" />
      <feGaussianBlur
         id="feGaussianBlur4647"
         in="composite"
         stdDeviation="2"
         result="blur" />
      <feOffset
         id="feOffset4649"
         dx="4"
         dy="4"
         result="offset" />
      <feComposite
         id="feComposite4651"
         in2="offset"
         in="fbSourceGraphic"
         operator="over"
         result="composite2" />
    </filter>
    <filter
       inkscape:collect="always"
       id="filter4279"
       x="-0.063159391"
       width="1.1263188"
       y="-1.1994635"
       height="3.3989272"
       color-interpolation-filters="sRGB">
      <feGaussianBlur
         inkscape:collect="always"
         stdDeviation="11.854758"
         id="feGaussianBlur4281" />
    </filter>
    <filter
       color-interpolation-filters="sRGB"
       inkscape:collect="always"
       id="filter4469"
       x="-0.36000001"
       width="1.72"
       y="-0.36000001"
       height="1.72">
      <feGaussianBlur
         inkscape:collect="always"
         stdDeviation="7.059375"
         id="feGaussianBlur4471" />
    </filter>
    <filter
       inkscape:collect="always"
       id="filter5155"
       x="-0.56290037"
       width="2.1258007"
       y="-0.34789158"
       height="1.6957832">
      <feGaussianBlur
         inkscape:collect="always"
         stdDeviation="2.4845533"
         id="feGaussianBlur5157" />
    </filter>
    <filter
       inkscape:collect="always"
       id="filter5203"
       x="-0.08203227"
       width="1.1640645"
       y="-0.22339669"
       height="1.4467934">
      <feGaussianBlur
         inkscape:collect="always"
         stdDeviation="1.1047119"
         id="feGaussianBlur5205" />
    </filter>
  </defs>
  <sodipodi:namedview
     pagecolor="#ffffff"
     bordercolor="#666666"
     borderopacity="1"
     objecttolerance="10"
     gridtolerance="10"
     guidetolerance="10"
     inkscape:pageopacity="0"
     inkscape:pageshadow="2"
     inkscape:window-width="1920"
     inkscape:window-height="1018"
     id="namedview4410"
     showgrid="false"
     inkscape:zoom="7.8451562"
     inkscape:cx="52.948849"
     inkscape:cy="43.766849"
     inkscape:window-x="1912"
     inkscape:window-y="-8"
     inkscape:window-maximized="1"
     inkscape:current-layer="layer1" />
  <metadata
     id="metadata3846">
    <rdf:RDF>
      <cc:Work
         rdf:about="">
        <dc:format>image/svg+xml</dc:format>
        <dc:type
           rdf:resource="http://purl.org/dc/dcmitype/StillImage" />
        <dc:title />
      </cc:Work>
    </rdf:RDF>
  </metadata>
  <g
     inkscape:label="Ebene 1"
     inkscape:groupmode="layer"
     id="layer1"
     transform="translate(0,0)">
    <g
       id="g4757"
       transform="translate(-1047.4576,22.033898)">
      <path
         style="fill:#0c0c0c;fill-opacity:1"
         d="m 1093.5098,77.917656 c -13.0339,-1.0262 -23.7429,-6.289431 -32.9842,-16.211005 -7.1685,-7.696279 -11.3881,-16.679539 -12.739,-27.119992 -0.3138,-2.425196 -0.4346,-8.331696 -0.2228,-10.891278 0.7121,-8.603512 3.2235,-16.0321806 7.7324,-22.87281019 3.773,-5.72392751 9.3364,-11.28888681 15.0587,-15.06285381 6.3437,-4.183766 13.113,-6.611849 21.208,-7.607098 2.0228,-0.24869 9.8029,-0.24869 11.8257,0 9.6317,1.184179 17.5543,4.458665 24.9083,10.294773 2.3672,1.8786671 6.7933,6.3059725 8.6714,8.6738901 5.7093,7.1981307 9.0133,15.0597159 10.2148,24.3055019 0.366,2.816362 0.366,10.231889 0,13.048259 -0.4996,3.844515 -1.4928,7.943291 -2.6978,11.133199 -1.3768,3.644953 -3.267,7.258045 -5.4409,10.400326 -3.3297,4.812819 -8.9194,10.373451 -13.7351,13.663497 -6.3134,4.313351 -13.3673,6.969609 -21.1996,7.983183 -1.7268,0.223452 -8.8538,0.399889 -10.5999,0.262408 z m 4.3843,-4.437004 c 0.114,-0.1374 0.153,-0.994125 0.1259,-2.761361 -0.035,-2.257105 -0.069,-2.581101 -0.2919,-2.721234 -0.1839,-0.115933 -0.3208,-0.115933 -0.5047,0 -0.2224,0.140133 -0.2571,0.464129 -0.2919,2.721234 -0.04,2.64629 0.017,2.960554 0.5443,2.960554 0.1392,0 0.3274,-0.08964 0.4183,-0.199193 z m -2.7432,-0.269636 c 0.152,-0.411897 0.3268,-3.49212 0.2148,-3.784099 -0.095,-0.247579 -0.8508,-0.300996 -0.9934,-0.07021 -0.1886,0.305247 -0.3565,3.790095 -0.1922,3.988176 0.2592,0.312423 0.8355,0.232949 0.9708,-0.133878 z m 5.6205,0.133879 c 0.1643,-0.198081 0,-3.68293 -0.1922,-3.988177 -0.1426,-0.230797 -0.8984,-0.17738 -0.9934,0.07021 -0.112,0.29198 0.063,3.372202 0.2147,3.7841 0.1354,0.366827 0.7117,0.446301 0.9709,0.133878 z m -8.431,-0.350266 c 0.042,-0.138844 0.1755,-1.02531 0.2972,-1.969929 0.2401,-1.863389 0.1887,-2.105281 -0.4469,-2.105281 -0.2276,0 -0.3877,0.111395 -0.4666,0.324571 -0.1781,0.481316 -0.5001,3.51937 -0.4004,3.779038 0.1222,0.318706 0.9191,0.296451 1.0167,-0.02836 z m 11.2874,0.02836 c 0.1,-0.259668 -0.2223,-3.297722 -0.4004,-3.779038 -0.081,-0.2175 -0.2386,-0.324571 -0.4791,-0.324571 -0.585,0 -0.6589,0.357354 -0.4342,2.099712 0.2897,2.245951 0.2833,2.227946 0.7933,2.227946 0.2597,0 0.469,-0.0901 0.5204,-0.224049 z M 1089.5354,72.4897 c 0.071,-0.178515 0.2687,-1.059352 0.4389,-1.957405 0.2414,-1.273448 0.2718,-1.678266 0.1382,-1.839255 -0.1963,-0.236624 -0.7965,-0.276759 -0.9292,-0.06218 -0.049,0.07936 -0.2469,0.96602 -0.4397,1.970363 -0.3776,1.965634 -0.3421,2.213007 0.3163,2.213007 0.2242,0 0.3915,-0.114173 0.4755,-0.324571 z m 16.8675,0.125259 c 0.126,-0.151876 0.081,-0.632646 -0.1906,-2.02034 -0.1958,-1.001566 -0.3959,-1.8856 -0.4447,-1.964514 -0.1326,-0.214738 -0.7329,-0.172916 -0.9301,0.06483 -0.1361,0.163914 -0.094,0.596254 0.1958,2.028835 0.2028,1.001285 0.4062,1.881268 0.4521,1.955519 0.1261,0.204055 0.73,0.161725 0.9175,-0.06431 z m -19.1833,-2.359342 c 0.5261,-2.058987 0.5003,-2.346024 -0.211,-2.346024 -0.3579,0 -0.5453,0.475268 -1.1521,2.921289 -0.2759,1.112357 -0.1515,1.453621 0.5023,1.377602 0.3512,-0.04081 0.4013,-0.154602 0.8608,-1.952867 z m 21.9377,1.765121 c 0.1453,-0.175199 0.1067,-0.512382 -0.2027,-1.767125 -0.5148,-2.087055 -0.6269,-2.34402 -1.0231,-2.34402 -0.6728,0 -0.7144,0.301358 -0.2838,2.054575 0.5389,2.194619 0.5729,2.273083 0.9835,2.273083 0.1906,0 0.4273,-0.09743 0.5261,-0.216513 z m -24.0598,-3.531459 c 0.5419,-1.625011 0.9852,-3.072501 0.9852,-3.216642 0,-0.322434 -0.8335,-0.708069 -1.1566,-0.535109 -0.2739,0.146601 -2.237,6.104942 -2.0899,6.34304 0.139,0.22486 0.6592,0.429365 0.9994,0.392921 0.2257,-0.02416 0.4586,-0.574934 1.2619,-2.98421 z m 26.9291,2.67066 c 0.1776,-0.177615 0.071,-0.616962 -0.7864,-3.254117 -0.5787,-1.779421 -1.0845,-3.098537 -1.2148,-3.168294 -0.3074,-0.164554 -1.1566,0.211938 -1.1566,0.51275 0,0.223232 1.8234,5.901226 1.9821,6.17204 0.1001,0.170912 0.9271,-0.01363 1.1757,-0.262379 z m -30.7405,-0.834072 c 0.2842,-0.360786 1.3514,-3.312448 1.308,-3.61746 -0.033,-0.231681 -0.1596,-0.324747 -0.4853,-0.356609 -0.4366,-0.04273 -0.4468,-0.02748 -1.1176,1.661249 -0.3725,0.937392 -0.6771,1.80393 -0.6771,1.925639 0,0.489758 0.6784,0.759983 0.972,0.387181 z m 33.1232,0.09276 c 0.3588,-0.137724 0.2767,-0.578706 -0.4461,-2.398527 -0.6841,-1.722085 -0.7916,-1.845244 -1.4052,-1.609754 -0.3424,0.131469 -0.2849,0.471554 0.3684,2.177608 0.761,1.987374 0.8354,2.079187 1.4829,1.830673 z m -35.0128,-2.668671 c 1.0067,-2.079239 1.0076,-2.082826 0.5556,-2.379064 -0.5047,-0.330781 -0.6181,-0.205042 -1.517,1.682119 -0.9118,1.914095 -0.9246,2.335562 -0.068,2.25435 0.2142,-0.02033 0.4791,-0.421129 1.0292,-1.557405 z m 37.6087,1.514633 c 0.1254,-0.04818 0.228,-0.222562 0.228,-0.387565 0,-0.34382 -1.2321,-3.076156 -1.5583,-3.455831 -0.272,-0.316533 -0.3511,-0.315251 -0.7555,0.01223 l -0.3267,0.264656 0.7611,1.646728 c 0.9796,2.11947 1.0172,2.163199 1.6514,1.919805 z m -40.0184,-2.801901 c 0.8979,-1.631605 1.0036,-1.973789 0.7026,-2.274882 -0.3438,-0.343923 -0.6831,-0.178971 -1.0859,0.52803 -1.2789,2.244456 -1.5493,2.865735 -1.3509,3.104709 0.1064,0.128317 0.3432,0.233303 0.526,0.233303 0.2741,0 0.4861,-0.279147 1.2082,-1.59116 z m 42.7437,1.28441 c 0.1136,-0.181594 -0.061,-0.617132 -0.7717,-1.927083 -0.5051,-0.930851 -1.0115,-1.728177 -1.1253,-1.771841 -0.2867,-0.110076 -0.6637,0.154499 -0.7159,0.502489 -0.024,0.159566 0.3582,1.016498 0.8493,1.904304 0.8013,1.448927 0.9297,1.609717 1.2547,1.570474 0.1992,-0.02402 0.4282,-0.149298 0.5089,-0.278343 z m -45.4639,-2.109524 c 0.4158,-0.66137 0.5992,-0.798724 1.2628,-2.086293 0.1221,-0.799845 -0.1331,-1.038831 -0.8945,-0.623014 -0.2405,0.251925 -1.7938,2.725668 -1.9146,3.040603 -0.1142,0.297667 0.21,0.64243 0.6041,0.64243 0.2508,0 0.477,-0.23373 0.9422,-0.973726 z m 47.9171,0.664567 c 0.203,-0.324519 -1.8068,-3.585738 -2.2098,-3.585738 -0.2534,0 -0.7217,0.350877 -0.7217,0.5407 0,0.04803 0.4637,0.825777 1.0303,1.728331 0.9095,1.448589 1.0727,1.635899 1.3916,1.597378 0.1987,-0.02402 0.428,-0.150307 0.5096,-0.280671 z m -49.513,-3.180744 c 1.7263,-2.386865 1.7138,-2.361235 1.3351,-2.740041 -0.1659,-0.165902 -0.391,-0.2673 -0.5003,-0.225338 -0.2601,0.09981 -3.1423,4.065882 -3.1423,4.323908 0,0.290233 0.303,0.545201 0.6418,0.540177 0.2113,-0.0029 0.6865,-0.544804 1.6657,-1.898706 z m 51.7445,1.729982 c 0.095,-0.0952 0.173,-0.262357 0.173,-0.371453 0,-0.258026 -2.8821,-4.224094 -3.1422,-4.323908 -0.1093,-0.04199 -0.3344,0.05945 -0.5003,0.225338 -0.3787,0.378806 -0.3912,0.353176 1.3351,2.740041 1.3784,1.90594 1.6989,2.165638 2.1344,1.729982 z m -54.2166,-2.992925 c 0.6458,-0.789237 1.1741,-1.565928 1.1741,-1.725988 0,-0.325639 -0.4538,-0.633045 -0.7466,-0.505679 -0.218,0.0948 -2.3928,2.690684 -2.5098,2.995658 -0.097,0.252714 0.3086,0.670984 0.6505,0.670984 0.1515,0 0.7415,-0.591178 1.4318,-1.434975 z m 56.5539,1.14455 c 0.085,-0.159736 0.104,-0.376905 0.041,-0.482612 -0.258,-0.433888 -2.2916,-2.819081 -2.4682,-2.894791 -0.295,-0.126489 -0.7467,0.182449 -0.7467,0.510688 0,0.16216 0.5331,0.938851 1.1846,1.725989 1.2399,1.498079 1.6669,1.742984 1.9891,1.140726 z m -17.7535,-0.249111 c 0.8853,-0.648581 1.076,-1.813427 0.4382,-2.676348 -0.2859,-0.386842 -0.2899,-0.428981 -0.064,-0.678785 0.4147,-0.458434 0.4345,-1.298392 0.044,-1.875544 -0.483,-0.713874 -1.314,-0.990059 -2.2403,-0.744623 -0.8714,0.230871 -1.3272,0.644603 -1.1006,0.999075 0.1647,0.257687 0.5627,0.284525 1.4597,0.09844 0.5481,-0.113715 0.9011,0.108978 0.8978,0.566366 0,0.505745 -0.2288,0.712519 -0.8716,0.800479 -1.1837,0.161969 -1.1457,1.016116 0.053,1.188435 0.8596,0.123587 0.9651,0.199701 0.9651,0.696421 0,0.791035 -0.6948,1.061577 -1.8645,0.726015 -0.5475,-0.157062 -0.8756,0.0022 -0.8756,0.425121 0,0.290049 0.3812,0.662467 0.7932,0.774908 0.5774,0.157586 1.9846,-0.02085 2.3655,-0.299957 z m -20.0335,0.03654 c 0.102,-0.123027 0.1392,-0.369103 0.087,-0.577019 -0.086,-0.343871 -0.1427,-0.36251 -1.0977,-0.36251 -0.5538,0 -1.0052,-0.04869 -1.0031,-0.10819 0,-0.05952 0.3272,-0.497375 0.7226,-0.973033 0.3955,-0.475666 0.8234,-1.138244 0.951,-1.472399 0.6365,-1.667289 -0.7883,-3.07343 -2.4653,-2.43282 -0.7568,0.28907 -0.9977,0.546086 -0.875,0.932988 0.1269,0.400059 0.5331,0.492638 1.0282,0.234362 0.7832,-0.408545 1.2117,-0.199502 1.2117,0.591149 0,0.486326 -0.4715,1.2035 -1.6832,2.560135 -0.6959,0.779166 -0.8913,1.283607 -0.6227,1.607337 0.139,0.167582 0.5489,0.21451 1.8732,0.21451 1.3244,0 1.7342,-0.04693 1.8733,-0.21451 z m -20.884,-2.681187 c 0.6601,-0.719892 1.2509,-1.399429 1.3129,-1.510087 0.113,-0.201551 -0.336,-0.787403 -0.6034,-0.787403 -0.2302,0 -2.7542,2.76472 -2.7542,3.01683 0,0.313948 0.2783,0.58955 0.5953,0.58955 0.1371,0 0.7893,-0.588997 1.4494,-1.30889 z m 60.6601,1.135783 c 0.095,-0.09521 0.1731,-0.282608 0.1731,-0.416443 0,-0.25211 -2.5241,-3.01683 -2.7542,-3.01683 -0.2674,0 -0.7163,0.585852 -0.6034,0.787403 0.2938,0.524294 2.5424,2.818977 2.7623,2.818977 0.1371,0 0.3271,-0.0779 0.4222,-0.173107 z m -62.5048,-3.158878 c 0.7625,-0.721823 1.3864,-1.399746 1.3864,-1.5065 0,-0.269621 -0.5847,-0.653266 -0.8062,-0.529024 -0.5099,0.286027 -2.7992,2.53701 -2.7992,2.752447 0,0.317108 0.2755,0.595488 0.5894,0.595488 0.1338,0 0.8671,-0.590581 1.6296,-1.312411 z m 64.6093,0.987841 c 0.2208,-0.352204 0.072,-0.54929 -1.478,-1.952256 -1.1092,-1.004313 -1.3629,-1.171777 -1.5907,-1.049855 -0.6475,0.346641 -0.5263,0.607216 0.9298,1.999602 1.4391,1.375973 1.7991,1.544719 2.1389,1.002509 z m -66.593,-2.863172 c 0.7828,-0.642496 1.4746,-1.258324 1.5374,-1.368518 0.1645,-0.288428 -0.1454,-0.781185 -0.4912,-0.781185 -0.3871,0 -3.1563,2.296223 -3.1563,2.61711 0,0.254821 0.3628,0.700761 0.5702,0.700761 0.064,0 0.7573,-0.525679 1.5399,-1.168168 z m 68.2764,1.018841 c 0.5902,-0.315951 0.3385,-0.749566 -1.1518,-1.983682 -0.7868,-0.651676 -1.5633,-1.184862 -1.7255,-1.184862 -0.3444,0 -0.6567,0.493339 -0.4912,0.776154 0.1153,0.19699 2.9062,2.541717 3.0254,2.541717 0.035,0 0.1897,-0.06719 0.3431,-0.149327 z m -68.6714,-3.909727 c 1.351,-0.980805 2.4943,-1.877444 2.5404,-1.99253 0.1021,-0.254165 -0.3734,-0.926895 -0.7006,-0.991267 -0.3211,-0.06313 -5.4297,3.679446 -5.4297,3.977864 0,0.346428 0.6046,0.927535 0.888,0.853417 0.135,-0.03529 1.3508,-0.866678 2.7019,-1.847484 z m 70.4914,1.581569 c 0.1836,-0.172511 0.3338,-0.427788 0.3338,-0.56728 0,-0.317373 -5.0896,-4.064999 -5.4297,-3.998086 -0.3269,0.06431 -0.8027,0.736874 -0.7012,0.991267 0.095,0.239056 5.0802,3.887751 5.3116,3.887751 0.083,0 0.3019,-0.141142 0.4855,-0.313652 z m -73.2448,-3.162069 c 1.6612,-1.052559 1.8601,-1.30752 1.3885,-1.779288 -0.1246,-0.124677 -0.2659,-0.226687 -0.3139,-0.226687 -0.048,0 -0.8222,0.46161 -1.7203,1.025796 -1.2715,0.798733 -1.633,1.095699 -1.633,1.341577 0,0.338796 0.2465,0.661989 0.5048,0.661989 0.087,0 0.8855,-0.460527 1.7739,-1.023387 z m 74.8477,0.850279 c 0.095,-0.09521 0.1731,-0.315207 0.1731,-0.488881 0,-0.245878 -0.3615,-0.542844 -1.633,-1.341577 -0.8982,-0.564186 -1.6723,-1.025796 -1.7203,-1.025796 -0.048,0 -0.1893,0.10201 -0.3139,0.226687 -0.4757,0.475798 -0.2756,0.730987 1.3958,1.780202 0.8923,0.560163 1.6905,1.019379 1.7738,1.020476 0.083,0.0015 0.2294,-0.0759 0.3245,-0.171111 z m -65.1565,-1.987668 c 0.1803,-0.113988 0.2163,-0.607474 0.2163,-2.960289 0,-3.05597 -0.037,-3.197901 -0.7789,-3.022569 -0.5653,0.133503 -1.621,1.079345 -1.5716,1.408078 0.065,0.431862 0.4824,0.642791 0.8357,0.422108 0.2841,-0.177431 0.289,-0.145562 0.289,1.883589 0,2.09963 0.074,2.412973 0.5696,2.408074 0.123,-0.0015 0.3209,-0.06372 0.4399,-0.138991 z m 55.3498,-0.0319 c 0.095,-0.09521 0.1731,-0.382813 0.1731,-0.639115 0,-0.373442 0.065,-0.475164 0.3245,-0.512109 0.2478,-0.03521 0.335,-0.155655 0.3693,-0.509973 0.038,-0.393282 -0.01,-0.477832 -0.3202,-0.555516 -0.3622,-0.09094 -0.3653,-0.10458 -0.4053,-1.828779 -0.032,-1.403267 -0.085,-1.764989 -0.2705,-1.882004 -0.5035,-0.317071 -0.9063,0.0077 -1.8813,1.516798 -1.5016,2.324026 -1.6065,2.527846 -1.5064,2.92652 0.086,0.34435 0.1362,0.358988 1.2225,0.358988 l 1.1326,0 0.09,0.564923 c 0.05,0.310706 0.1715,0.597698 0.2708,0.637759 0.3202,0.129193 0.6234,0.09985 0.8006,-0.07749 z m -1.9895,-2.387425 c 0,-0.171863 0.8082,-1.342778 0.8777,-1.273213 0.035,0.03455 0.039,0.359453 0.01,0.722081 -0.049,0.619261 -0.078,0.659322 -0.4706,0.659322 -0.23,0 -0.4179,-0.04869 -0.4175,-0.10819 z m -64.4649,1.215404 c 1.6503,-0.907144 1.9319,-1.195624 1.5806,-1.619036 -0.2891,-0.348447 -0.6341,-0.247476 -2.2954,0.671816 -1.2747,0.705321 -1.5926,0.944369 -1.5926,1.197318 0,0.335378 0.2458,0.662498 0.4975,0.661908 0.083,-1.47e-4 0.8977,-0.410601 1.8099,-0.912006 z m 77.7033,0.739253 c 0.095,-0.09521 0.173,-0.315325 0.173,-0.489155 0,-0.252949 -0.3179,-0.491997 -1.5926,-1.197318 -0.876,-0.484697 -1.7116,-0.881272 -1.8572,-0.881272 -0.3357,0 -0.6264,0.34424 -0.564,0.667875 0.045,0.232263 3.1656,2.071798 3.5163,2.072623 0.083,1.4e-4 0.2293,-0.07754 0.3245,-0.172753 z m -79.0825,-3.094397 c 1.4054,-0.649693 1.9561,-0.990537 1.9561,-1.210785 0,-0.05827 -0.1199,-0.254069 -0.2666,-0.43514 l -0.2664,-0.329219 -1.6444,0.767453 c -1.945,0.907771 -2.0738,1.007283 -1.9487,1.505749 0.1331,0.53074 0.4804,0.483047 2.17,-0.298058 z m 80.4922,0.318471 c 0.049,-0.193845 0.046,-0.421541 -0.01,-0.506002 -0.09,-0.146211 -2.8015,-1.4781 -3.3874,-1.664129 -0.1993,-0.06328 -0.3485,0.01864 -0.525,0.288089 -0.3307,0.504839 -0.205,0.618267 1.6816,1.517469 1.7166,0.81816 2.1075,0.881847 2.2372,0.364573 z m -81.3796,-2.921377 c 1.687,-0.67052 1.7034,-0.68157 1.6608,-1.116799 -0.029,-0.2936 -0.1324,-0.456511 -0.312,-0.490561 -0.2662,-0.05054 -3.3141,1.04324 -3.661,1.313782 -0.3733,0.29108 -0.1022,0.970794 0.3871,0.970794 0.1216,0 0.9879,-0.304746 1.9251,-0.677216 z m 82.5072,0.352645 c 0.2733,-0.436753 -0.065,-0.693762 -1.7864,-1.358948 -1.8979,-0.733197 -2.2172,-0.748829 -2.2795,-0.111652 -0.043,0.43486 -0.021,0.449741 1.5864,1.107398 1.7174,0.702558 2.2209,0.776316 2.4795,0.363202 z m -83.0734,-3.014428 c 1.2804,-0.408317 2.4207,-0.827869 2.5339,-0.932332 0.2619,-0.241663 -0.01,-0.921856 -0.3633,-0.921856 -0.3652,0 -4.4161,1.299667 -4.7891,1.536513 -0.2495,0.158425 -0.3072,0.289018 -0.2329,0.527152 0.086,0.274653 0.307,0.523654 0.4719,0.530719 0.029,0.0015 1.0992,-0.331871 2.3795,-0.740196 z m 84.0327,0.364219 c 0.1007,-0.264759 0.094,-0.437579 -0.021,-0.576231 -0.1649,-0.198759 -4.5044,-1.642176 -4.937,-1.642176 -0.316,0 -0.5766,0.518003 -0.4103,0.815368 0.1228,0.219467 4.3818,1.734166 4.9681,1.766927 0.1512,0.0084 0.3149,-0.140546 0.3997,-0.363888 z m -85.6246,-2.728188 c 2.0081,-0.499932 2.2615,-0.612469 2.2615,-1.004741 0,-0.699184 -0.2938,-0.724202 -2.3454,-0.199694 -1.7121,0.437711 -1.9139,0.522335 -1.9561,0.820561 -0.048,0.339651 0.1898,0.749397 0.4352,0.749397 0.075,0 0.7973,-0.164488 1.6048,-0.365523 z m 0.075,-2.824215 c 1.5796,-0.31797 1.6097,-0.332328 1.6097,-0.768131 0,-0.655749 -0.2612,-0.692142 -2.219,-0.309196 -1.0013,0.195856 -1.8851,0.396 -1.964,0.444776 -0.1991,0.123093 -0.1797,0.698897 0.03,0.90928 0.186,0.186073 0.3114,0.17243 2.5428,-0.276729 z m -0.5221,-2.645834 c 0.7709,-0.11026 1.4685,-0.241862 1.5504,-0.292451 0.244,-0.150852 0.1687,-0.775417 -0.1116,-0.925473 -0.1727,-0.09243 -0.7922,-0.0708 -1.8388,0.06431 -2.2258,0.287257 -2.2273,0.287758 -2.2273,0.764934 0,0.223283 0.043,0.449255 0.096,0.502142 0.1457,0.145842 0.9797,0.108463 2.5311,-0.113443 z m 0.8339,-2.806351 c 0.4195,-0.0805 0.5128,-0.166351 0.5523,-0.5083 0.027,-0.232544 -0.036,-0.463975 -0.1442,-0.532251 -0.2255,-0.142004 -3.3603,0.0044 -3.8332,0.178942 -0.3545,0.130865 -0.4441,0.670858 -0.1588,0.956274 0.1698,0.169932 2.5298,0.107593 3.5839,-0.09466 z m 8.8907,-0.249627 c 0.7153,-0.339555 1.079,-1.141662 1.1686,-2.577248 0.128,-2.0538 -0.5279,-3.432698 -1.7254,-3.627088 -1.2659,-0.20547 -2.1228,0.85067 -2.2458,2.76794 -0.1727,2.692502 1.095,4.246924 2.8026,3.436396 z m -1.058,-1.031144 c -0.6567,-0.41768 -0.6319,-3.72506 0.03,-3.979063 0.6149,-0.236021 0.9346,0.452482 0.9346,2.012833 0,1.295092 -0.2711,2.075143 -0.721,2.075143 -0.04,0 -0.1493,-0.04899 -0.2435,-0.108913 z m -4.7475,-1.413146 c 0.141,-0.367667 0.101,-0.85464 -0.085,-1.041265 -0.1242,-0.124192 -1.0737,-0.173108 -3.3602,-0.173108 -3.3619,0 -3.5333,0.03234 -3.5333,0.666203 0,0.797024 -0.094,0.776352 3.5333,0.776352 2.9291,0 3.3693,-0.02917 3.4457,-0.228182 z m -2.5331,-2.999068 c 0.026,-0.227851 -0.014,-0.475621 -0.089,-0.550587 -0.2161,-0.216152 -3.7937,-0.429622 -4.0221,-0.239991 -0.2414,0.20035 -0.2478,0.790909 -0.01,0.941503 0.1977,0.125392 2.395,0.304555 3.4252,0.279272 0.603,-0.01481 0.6523,-0.04523 0.6962,-0.430197 z m 0.1401,-2.283302 c 0.2917,-0.291736 0.2069,-0.831287 -0.1514,-0.963972 -0.4812,-0.178168 -3.5184,-0.500146 -3.778,-0.400509 -0.1339,0.05142 -0.224,0.260729 -0.224,0.520523 0,0.506312 0,0.505265 2.0911,0.788191 1.8982,0.256478 1.8626,0.25552 2.0623,0.05577 z m 0.4327,-2.596593 c 0.2099,-0.209993 0.2282,-0.785576 0.029,-0.908831 -0.079,-0.04906 -0.9657,-0.247012 -1.9698,-0.439929 -1.9581,-0.376205 -2.2124,-0.341168 -2.2124,0.304842 0,0.183959 0.073,0.379505 0.1619,0.434566 0.1563,0.09659 3.1395,0.73218 3.5949,0.765906 0.1229,0.0091 0.3014,-0.06137 0.3966,-0.156554 z m 0.5768,-2.596601 c 0.095,-0.0952 0.1731,-0.319796 0.1731,-0.499092 0,-0.352078 -0.5675,-0.576422 -2.8502,-1.126839 -1.1883,-0.286521 -1.5244,-0.17313 -1.4475,0.488395 0.041,0.348071 0.1589,0.403492 1.7739,0.82963 1.991,0.52537 2.1169,0.541849 2.3507,0.307906 z m 2.0759,-2.355276 c 0.1165,-0.255616 0.1206,-0.410004 0.014,-0.516684 -0.2449,-0.244883 -4.8482,-1.719845 -5.1091,-1.637011 -0.3191,0.101316 -0.4523,0.665547 -0.2134,0.90447 0.2172,0.217315 4.315,1.579019 4.8149,1.600022 0.2182,0.0091 0.383,-0.107947 0.4936,-0.350797 z m 79.0045,-0.357507 c 1.249,-0.397135 2.3408,-0.806233 2.4261,-0.909104 0.1981,-0.238746 0.061,-0.775572 -0.2254,-0.885692 -0.17,-0.06527 -3.4911,0.925178 -4.8453,1.444964 -0.4849,0.186139 -0.3669,1.071897 0.1429,1.071897 0.1269,0 1.2527,-0.324931 2.5017,-0.722065 z m -79.3499,-2.675935 c 0.043,-0.437085 0.029,-0.4465 -1.6898,-1.129477 -1.8049,-0.71738 -2.1107,-0.761294 -2.3752,-0.341138 -0.2729,0.433482 0.063,0.697784 1.7212,1.355058 1.8576,0.736232 2.281,0.75711 2.3438,0.115557 z m 79.1243,-0.118783 c 1.6578,-0.653657 1.9943,-0.917967 1.7212,-1.351832 -0.2644,-0.419965 -0.5702,-0.376279 -2.3682,0.338339 -1.6001,0.635961 -1.7258,0.713844 -1.7258,1.069378 0,0.765132 0.309,0.757853 2.3728,-0.05592 z m -67.4139,-1.529102 c 0.1803,-0.11398 0.2163,-0.607474 0.2163,-2.9602891 0,-3.0559704 -0.037,-3.1979009 -0.7789,-3.0225689 -0.5653,0.1335028 -1.621,1.0793452 -1.5716,1.4080854 0.065,0.4318545 0.4824,0.6427833 0.8357,0.4221081 0.2841,-0.177439 0.289,-0.1455698 0.289,1.8835813 0,2.0996372 0.074,2.4129732 0.5696,2.4080742 0.123,-0.0015 0.3209,-0.0638 0.4399,-0.138991 z m 55.3498,-0.0319 c 0.095,-0.09521 0.1731,-0.382806 0.1731,-0.639115 0,-0.3734424 0.065,-0.4751645 0.3245,-0.5121021 0.2478,-0.035214 0.335,-0.1556624 0.3693,-0.5099803 0.038,-0.3932815 -0.01,-0.4778239 -0.3202,-0.5555078 -0.3622,-0.090952 -0.3653,-0.1045804 -0.4053,-1.8287864 -0.032,-1.4032675 -0.085,-1.7649892 -0.2705,-1.8820049 -0.5035,-0.317071 -0.9063,0.00766 -1.8813,1.5167986 -1.5016,2.324033 -1.6065,2.5278528 -1.5064,2.9265195 0.086,0.3443579 0.1362,0.3589886 1.2225,0.3589886 l 1.1326,0 0.09,0.5649228 c 0.05,0.310706 0.1715,0.597698 0.2708,0.637759 0.3202,0.129193 0.6234,0.09985 0.8006,-0.07749 z m -1.9895,-2.3874255 c 0,-0.1718549 0.8082,-1.3427706 0.8777,-1.2732124 0.035,0.034551 0.039,0.3594601 0.01,0.7220805 -0.049,0.6192682 -0.078,0.659322 -0.4706,0.659322 -0.23,0 -0.4179,-0.048695 -0.4175,-0.1081901 z m -64.0854,1.9027355 c 0.2128,-0.324865 0.2164,-0.394799 0.03,-0.5812921 -0.3198,-0.319841 -3.1743,-1.6460139 -3.5429,-1.6460139 -0.4013,0 -0.6156,0.6451186 -0.3104,0.9340039 0.1975,0.1868464 3.2755,1.6572561 3.4766,1.6607621 0.057,7.37e-4 0.2136,-0.164355 0.3467,-0.36746 z m 77.125,-0.5042124 c 0.8289,-0.3911008 1.5499,-0.7801979 1.602,-0.8646593 0.1903,-0.3079213 -0.069,-0.8584343 -0.4042,-0.8584343 -0.3686,0 -3.2231,1.3261729 -3.5428,1.6460139 -0.1865,0.1864931 -0.1823,0.2572891 0.035,0.5884601 0.2927,0.44692 0.2676,0.452489 2.3104,-0.5113804 z m -75.8736,-1.8838097 c 0.08,-0.1280587 0.1104,-0.3246147 0.067,-0.4367903 -0.043,-0.1121683 -0.8416,-0.617758 -1.7747,-1.1235245 -1.8147,-0.9837599 -2.1589,-1.0227013 -2.1589,-0.2442935 0,0.3363649 0.186,0.4886311 1.5143,1.2400024 1.5354,0.868527 2.08,0.9992598 2.3519,0.5646059 z m 74.6604,-0.5805331 c 1.4359,-0.7944823 1.5958,-0.9227399 1.5566,-1.2476861 -0.091,-0.7542665 -0.3993,-0.715163 -2.224,0.2820193 -1.7042,0.9313371 -1.9884,1.2165757 -1.6357,1.641719 0.2893,0.3486528 0.6343,0.2474023 2.3031,-0.6760522 z m -73.412,-1.5573533 c 0.082,-0.1534671 0.1493,-0.3762566 0.1493,-0.4950846 0,-0.1194688 -0.7484,-0.6833306 -1.6739,-1.2612559 -1.7794,-1.1110818 -2.0973,-1.1673501 -2.1914,-0.3879846 -0.038,0.3175645 0.1506,0.4832091 1.5864,1.3899113 0.8964,0.5661602 1.7087,1.0302965 1.8051,1.0314089 0.096,0.00147 0.2424,-0.1235354 0.3245,-0.2769951 z m 71.9295,-0.7515334 c 1.4481,-0.9097152 1.6354,-1.0729361 1.5969,-1.3919372 -0.094,-0.7815755 -0.412,-0.7245779 -2.1916,0.3932889 -0.9205,0.5782935 -1.6738,1.145883 -1.6738,1.2613001 0,0.3119731 0.2751,0.7679099 0.4633,0.7679099 0.091,0 0.9028,-0.4637531 1.8052,-1.0305617 z m -68.2909,0.013629 c 0.1503,-0.2022728 0.2352,-0.4619336 0.1887,-0.5770191 -0.082,-0.2030094 -4.5913,-3.5387818 -5.1401,-3.80260487 -0.3477,-0.16711791 -1.0217,0.41927927 -0.9596,0.83483077 0.054,0.3638581 4.9833,3.9885894 5.3635,3.9444028 0.1507,-0.017533 0.3971,-0.1973296 0.5475,-0.3996096 z m 65.8782,-1.4152166 c 1.3881,-1.0146345 2.5459,-1.9593646 2.5729,-2.0994018 0.052,-0.2719709 -0.4954,-0.95015209 -0.7675,-0.95015209 -0.1806,0 -5.1311,3.55823029 -5.3004,3.80963289 -0.1565,0.2325138 -0.1392,0.2981896 0.1886,0.7149567 0.1643,0.2090503 0.4077,0.3777668 0.5408,0.3749158 0.133,-0.00295 1.3776,-0.8353244 2.7656,-1.8499515 z m -66.3446,-2.1735716 c 0.082,-0.1529367 0.1114,-0.3639097 0.065,-0.468829 -0.095,-0.218001 -2.6899,-2.393407 -2.9948,-2.5104374 -0.2711,-0.10405 -0.6967,0.3435033 -0.6425,0.67544808 0.06,0.37093768 2.7073,2.56732462 3.1033,2.57538392 0.1756,0.00368 0.3863,-0.1186364 0.4682,-0.2715656 z m 65.6312,-0.89636648 c 0.8435,-0.69058707 1.4345,-1.28064555 1.4345,-1.4322488 0,-0.34203002 -0.4182,-0.74762892 -0.6708,-0.65065112 -0.3049,0.1170304 -2.9,2.2924364 -2.9948,2.5104374 -0.1274,0.292856 0.18,0.7468849 0.5055,0.7468849 0.16,0 0.9365,-0.528486 1.7256,-1.17442238 z m -63.7802,-1.3108056 c 0.023,-0.11893109 -0.5824,-0.80652722 -1.3577,-1.54044702 -1.4343,-1.3578506 -1.794,-1.5244971 -2.1308,-0.9871929 -0.2208,0.3524394 -0.071,0.5490691 1.486,1.9594316 1.2588,1.13974643 1.3441,1.19122627 1.6437,0.99255596 0.1738,-0.11524764 0.3353,-0.30620482 0.3588,-0.42434764 z m 62.0314,-0.80695452 c 0.7197,-0.660273 1.3085,-1.3126628 1.3085,-1.449768 0,-0.3171151 -0.2755,-0.5954952 -0.5894,-0.5954952 -0.252,0 -3.016,2.52474469 -3.016,2.75496739 0,0.26747707 0.5857,0.71655536 0.7872,0.60356936 0.1107,-0.0620292 0.79,-0.65300856 1.5097,-1.31327355 z m -20.6262,0.011787 c 0.8853,-0.6485818 1.076,-1.8134199 0.4382,-2.676348 -0.2859,-0.3868354 -0.2899,-0.428974 -0.064,-0.6787853 0.4147,-0.4584342 0.4345,-1.2983924 0.044,-1.8755441 -0.483,-0.7138664 -1.314,-0.9900585 -2.2403,-0.7446158 -0.8714,0.230871 -1.3272,0.6446029 -1.1006,0.9990682 0.1647,0.2576939 0.5627,0.2845314 1.4597,0.098436 0.5481,-0.1137079 0.9011,0.1089858 0.8978,0.5663739 0,0.5057445 -0.2288,0.7125183 -0.8716,0.800479 -1.1837,0.1619685 -1.1457,1.0161153 0.053,1.1884342 0.8596,0.123587 0.9651,0.1997017 0.9651,0.6964217 0,0.7910346 -0.6948,1.061577 -1.8645,0.7260144 -0.5475,-0.1570621 -0.8756,0.00221 -0.8756,0.4251219 0,0.2900492 0.3812,0.6624677 0.7932,0.7749012 0.5774,0.15758511 1.9846,-0.020848 2.3655,-0.2999577 z m -20.0335,0.03654 c 0.102,-0.1230344 0.1392,-0.3691033 0.087,-0.577019 -0.086,-0.3438725 -0.1427,-0.3625107 -1.0977,-0.3625107 -0.5538,0 -1.0052,-0.048695 -1.0031,-0.1081902 0,-0.059525 0.3272,-0.4973756 0.7226,-0.9730337 0.3955,-0.4756654 0.8234,-1.1382435 0.951,-1.4723983 0.6365,-1.6672895 -0.7883,-3.07343 -2.4653,-2.4328199 -0.7568,0.2890694 -0.9977,0.5460855 -0.875,0.9329946 0.1269,0.4000516 0.5331,0.4926313 1.0282,0.2343555 0.7832,-0.4085383 1.2117,-0.1995028 1.2117,0.5911488 0,0.4863253 -0.4715,1.2034995 -1.6832,2.5601345 -0.6959,0.7791666 -0.8913,1.2836078 -0.6227,1.6073384 0.139,0.1675821 0.5489,0.2145092 1.8732,0.2145092 1.3244,0 1.7342,-0.046927 1.8733,-0.2145092 z m -19.6531,-0.895019 c 0.1987,-0.2997367 0.1472,-0.3850084 -0.9922,-1.6441721 -1.41,-1.5581343 -1.6066,-1.7072917 -1.9589,-1.4863587 -0.5372,0.3368143 -0.3706,0.6966059 0.9869,2.1313594 0.7337,0.7754905 1.4211,1.3816537 1.54,1.358006 0.1181,-0.0235 0.309,-0.1849686 0.4242,-0.3588346 z m 58.2873,-0.9876348 c 0.7232,-0.7567344 1.315,-1.4902705 1.315,-1.6300793 0,-0.3237012 -0.2744,-0.6004163 -0.5953,-0.6004163 -0.2154,0 -2.4657,2.2899095 -2.7517,2.8000446 -0.1235,0.2203511 0.2587,0.8063438 0.5259,0.8063438 0.1051,0 0.7829,-0.6191511 1.5061,-1.3758928 z m -56.5059,-0.5045068 c 0.1535,-0.082133 0.2789,-0.2820046 0.2789,-0.444172 0,-0.3870932 -2.2955,-3.1571326 -2.6163,-3.1571326 -0.2589,0 -0.7006,0.3641086 -0.7006,0.5774832 0,0.1316979 2.2611,2.8828338 2.5171,3.0627554 0.1945,0.136619 0.1928,0.1367442 0.5209,-0.038971 z m 53.2943,0.038971 c 0.2395,-0.1582923 2.5076,-2.9353228 2.5076,-3.0703138 0,-0.2070464 -0.4461,-0.5699247 -0.7006,-0.5699247 -0.3198,0 -2.6164,2.7694279 -2.6164,3.1550404 0,0.1610107 0.1136,0.3589149 0.2524,0.4397886 0.3046,0.1774463 0.3514,0.1812624 0.557,0.04538 z m -50.3476,-0.7549 c 0.3299,-0.3646316 0.3324,-0.3596958 -1.3698,-2.7133143 -1.3784,-1.9059384 -1.6989,-2.1656382 -2.1344,-1.7299831 -0.3564,0.3565 -0.407,0.2693799 2.3093,3.9742327 0.6069,0.8278028 0.8013,0.9041091 1.1949,0.4690647 z m 49.0569,-1.8042473 c 0.8127,-1.1103157 1.4806,-2.1193734 1.4842,-2.2423482 0.01,-0.3104791 -0.283,-0.5706445 -0.6351,-0.5654258 -0.2113,0.00309 -0.6865,0.5448066 -1.6657,1.898707 -0.7536,1.0418847 -1.4287,2.0137396 -1.5003,2.1596851 -0.1555,0.316629 0.2735,0.8771462 0.6201,0.810358 0.1206,-0.023206 0.8842,-0.9506678 1.6968,-2.0609761 z m -47.6771,-0.653399 c 0.1534,-0.082133 0.2789,-0.2234378 0.2789,-0.3140137 0,-0.090576 -0.4636,-0.9031366 -1.0302,-1.805692 -0.9095,-1.4485847 -1.0727,-1.6358977 -1.3916,-1.5973737 -0.7801,0.09423 -0.724,0.411719 0.387,2.1920498 0.5778,0.9258067 1.1415,1.6743565 1.2609,1.6743565 0.1188,0 0.3415,-0.067186 0.495,-0.1493269 z m 45.756,-1.3347996 c 0.5203,-0.8162706 0.9888,-1.5960759 1.0413,-1.7328998 0.1257,-0.327698 -0.1777,-0.677866 -0.5875,-0.677866 -0.26,0 -0.5364,0.333861 -1.3523,1.6334373 -0.5641,0.8983886 -1.0256,1.6727299 -1.0256,1.720762 0,0.048032 0.102,0.1893291 0.2267,0.3140064 0.4627,0.4628175 0.7249,0.2685821 1.6974,-1.2574399 z m -43.4869,0.012745 c 0.3009,-0.300975 0.1955,-0.6392884 -0.7079,-2.2729698 -0.7194,-1.300747 -0.9411,-1.593072 -1.2083,-1.593072 -0.1799,0 -0.4142,0.104988 -0.5206,0.233306 -0.1984,0.238977 0.072,0.860252 1.3509,3.1047058 0.4028,0.7070086 0.7421,0.8719533 1.0859,0.52803 z m 41.2552,-1.6095846 c 0.9975,-1.8239502 1.0364,-2.1363622 0.277,-2.2280472 -0.3249,-0.03922 -0.4531,0.120826 -1.2473,1.557008 -0.9114,1.6480127 -1.0137,1.9790138 -0.7067,2.286149 0.4151,0.4151906 0.7353,0.1067684 1.677,-1.6151098 z m -33.362,0.9966483 c 0.3108,-0.1299063 0.4991,-0.3073614 0.4974,-0.4688297 0,-0.1428948 -0.4453,-1.5905628 -0.9862,-3.2170418 l -0.9833,-2.957234 -0.4741,0.02323 c -0.2608,0.01278 -0.576,0.125091 -0.7004,0.249581 -0.2056,0.205619 -0.1364,0.500655 0.7559,3.222506 0.8851,2.6997336 1.1457,3.3568035 1.3315,3.3568035 0.032,0 0.2842,-0.09406 0.5592,-0.209015 z m 24.5496,0.028701 c 0.08,-0.099176 0.5871,-1.5285935 1.1273,-3.1764855 0.8924,-2.721851 0.9616,-3.016887 0.756,-3.222506 -0.1244,-0.12449 -0.4396,-0.2368 -0.7004,-0.249581 l -0.4741,-0.02323 -0.9834,2.957234 c -0.5408,1.626479 -0.9846,3.0739686 -0.986,3.2166446 0,0.1561479 0.1837,0.3405257 0.4659,0.4631837 0.5846,0.254182 0.6171,0.2556016 0.7947,0.03474 z m -30.1002,-0.6613575 0.3268,-0.2646548 -0.7588,-1.6467282 c -0.8894,-1.930138 -1.0038,-2.078034 -1.509,-1.951193 -0.5386,0.135189 -0.4828,0.507229 0.3323,2.2183 0.9738,2.0441575 1.0362,2.1080107 1.6087,1.644276 z m 35.6249,0.036179 c 0.3482,-0.4196549 1.5763,-3.118728 1.5763,-3.464271 0,-0.418316 -0.6384,-0.644658 -0.9281,-0.329042 -0.1005,0.109462 -0.528,0.93918 -0.95,1.84382 l -0.7672,1.6447955 0.3292,0.2665864 c 0.4017,0.3254022 0.4974,0.3303292 0.7398,0.038111 z m -33.0726,-1.358334 c 0.046,-0.470124 -1.146,-3.475962 -1.4551,-3.670983 -0.2866,-0.180873 -0.7185,0.04274 -0.7906,0.409443 -0.026,0.132984 0.2624,1.021777 0.641,1.975094 0.6828,1.718859 0.6922,1.732945 1.1292,1.690195 0.3509,-0.03432 0.4478,-0.116602 0.4755,-0.403749 z m 31.3904,-1.293492 c 0.7144,-1.798469 0.758,-2.104347 0.3382,-2.368819 -0.4357,-0.274484 -0.6931,0.06239 -1.3525,1.77025 -0.8103,2.098574 -0.8156,2.324827 -0.054,2.324827 0.3554,0 0.4333,-0.125726 1.0691,-1.726258 z m -26.4483,-0.07881 c 0.1478,-0.178047 0.091,-0.570036 -0.3068,-2.127766 -0.4595,-1.798264 -0.5096,-1.912036 -0.8608,-1.952868 -0.6613,-0.0769 -0.7747,0.259252 -0.4883,1.447871 0.1389,0.576306 0.3759,1.453545 0.5266,1.949423 0.2343,0.770616 0.323,0.901596 0.6112,0.901596 0.1853,0 0.4185,-0.09821 0.5181,-0.218256 z m 10.3677,0.01906 c 0.114,-0.137392 0.153,-0.994121 0.1259,-2.761358 -0.035,-2.257102 -0.069,-2.581102 -0.2919,-2.721236 -0.1839,-0.11593 -0.3208,-0.11593 -0.5047,0 -0.2224,0.140134 -0.2571,0.464134 -0.2919,2.721236 -0.04,2.64629 0.017,2.960554 0.5443,2.960554 0.1392,0 0.3274,-0.08964 0.4183,-0.199196 z m 10.5204,-0.197507 c 0.087,-0.218186 0.3297,-1.094478 0.5401,-1.947317 0.4222,-1.712249 0.3617,-2.039011 -0.3619,-1.95487 -0.3512,0.04083 -0.4014,0.154603 -0.8609,1.952868 -0.3979,1.55773 -0.4544,1.949719 -0.3068,2.127766 0.3001,0.361589 0.8116,0.269333 0.9895,-0.178447 z m -18.302,-0.386744 c 0.1336,-0.160992 0.1032,-0.565805 -0.1382,-1.839255 -0.3917,-2.066616 -0.478,-2.281979 -0.9144,-2.281979 -0.6584,0 -0.6939,0.247377 -0.3163,2.21301 0.1928,1.00434 0.3907,1.891002 0.4397,1.970361 0.1327,0.214625 0.7329,0.174484 0.9292,-0.06214 z m 15.6551,0.06293 c 0.049,-0.07892 0.2489,-0.962952 0.4447,-1.964519 0.2713,-1.387687 0.3166,-1.86846 0.1906,-2.02034 -0.1912,-0.230465 -0.7924,-0.266831 -0.9227,-0.05582 -0.049,0.07892 -0.2489,0.962951 -0.4447,1.964519 -0.2712,1.387687 -0.3166,1.868459 -0.1906,2.02034 0.1912,0.230464 0.7924,0.266831 0.9227,0.05582 z m -13.0696,-0.483177 c 0.1189,-0.14338 0.1032,-0.641397 -0.06,-1.911383 -0.1217,-0.944616 -0.2554,-1.831083 -0.2972,-1.969929 -0.098,-0.324847 -0.8945,-0.347103 -1.0167,-0.0284 -0.1,0.259665 0.2223,3.297722 0.4004,3.779034 0.1363,0.368468 0.7124,0.445768 0.9739,0.130674 z m 10.5294,-0.130674 c 0.1781,-0.481312 0.5,-3.519369 0.4004,-3.779035 -0.052,-0.133951 -0.2607,-0.224049 -0.5204,-0.224049 -0.51,0 -0.5036,-0.018 -0.7933,2.227943 -0.2247,1.742361 -0.1508,2.099715 0.4342,2.099715 0.2405,0 0.3986,-0.107069 0.4791,-0.324574 z m -7.8617,-0.182927 c 0.112,-0.291974 -0.063,-3.372196 -0.2148,-3.784094 -0.1353,-0.36683 -0.7116,-0.446301 -0.9708,-0.133879 -0.1643,0.198081 0,3.682925 0.1922,3.988178 0.1426,0.23079 0.8984,0.177377 0.9934,-0.0702 z m 5.2135,0.07021 c 0.1886,-0.305253 0.3565,-3.790096 0.1922,-3.988177 -0.2592,-0.312423 -0.8355,-0.232951 -0.9709,0.133878 -0.1519,0.411898 -0.3267,3.49212 -0.2147,3.784094 0.095,0.247583 0.8508,0.300996 0.9934,0.0702 z"
         id="path4761"
         inkscape:connector-curvature="0"
         sodipodi:nodetypes="ssssssssssssssssssssssssssssssssssssssssssssssssssssssssssssssssssssssssssssscssssssssssssssssssssssssscsscssssssssssssssscssssccssssssssssssssssssssssssssssssssssssssssssssscsssssssssssssssssssssssssssssssssssssssssssssssssssssssssssssssssssssscssssssscssssssssssscssscccsccsssscsssssscsssscssssssssscsssssscssssscssssscssssssssssssssssscssscscssscsssssssscsssscsssssscccsssccssssssssssscsscccsssssssssssssssssssssscssssssssssscssscccsccsssscsssssssscssssssssssssssssssssssscssssscssscssssscssssssscsssssssssssssssssssssssscscsscsssssssssccsssscscssssscsssssssssssssssssssssssssssssssssssssssssssssssssssscssssssssscssssscsssssssscsssssssssssssssssssssssssssssssssssssssssssssssssssssssssssssssssscsccccccccccccccscsczccczccccc" />
      <text
         xml:space="preserve"
         style="font-size:6px;font-style:normal;font-variant:normal;font-weight:normal;font-stretch:normal;text-align:center;line-height:125%;letter-spacing:0px;word-spacing:0px;writing-mode:lr-tb;text-anchor:middle;fill:#ffb12c;fill-opacity:1;stroke:none;font-family:Sans;-inkscape-font-specification:Sans;filter:url(#filter5203)"
         x="1097.3463"
         y="43.653713"
         id="text5299-5"
         sodipodi:linespacing="125%"><tspan
           sodipodi:role="line"
           id="tspan5301-2"
           x="1097.3463"
           y="43.653713"
           style="font-size:6px;font-style:normal;font-variant:normal;font-weight:normal;font-stretch:normal;text-align:center;line-height:125%;writing-mode:lr-tb;text-anchor:middle;fill:#ffb12c;fill-opacity:1;font-family:Sans;-inkscape-font-specification:Sans">Ertrag heute</tspan><tspan
           sodipodi:role="line"
           x="1097.3463"
           y="51.153713"
           style="font-size:6px;font-style:normal;font-variant:normal;font-weight:normal;font-stretch:normal;text-align:center;line-height:125%;writing-mode:lr-tb;text-anchor:middle;fill:#ffb12c;fill-opacity:1;font-family:Sans;-inkscape-font-specification:Sans"
           id="tspan5153-7">in t€</tspan></text>
      <text
         xml:space="preserve"
         style="font-size:6px;font-style:normal;font-variant:normal;font-weight:normal;font-stretch:normal;text-align:center;line-height:125%;letter-spacing:0px;word-spacing:0px;writing-mode:lr-tb;text-anchor:middle;fill:#ffb12c;fill-opacity:0.77254903;stroke:none;font-family:Sans;-inkscape-font-specification:Sans"
         x="1097.3463"
         y="43.653713"
         id="text5299"
         sodipodi:linespacing="125%"><tspan
           sodipodi:role="line"
           id="tspan5301"
           x="1097.3463"
           y="43.653713"
           style="font-size:6px;font-style:normal;font-variant:normal;font-weight:normal;font-stretch:normal;text-align:center;line-height:125%;writing-mode:lr-tb;text-anchor:middle;fill:#ffb12c;fill-opacity:0.77254903;font-family:Sans;-inkscape-font-specification:Sans">Ertrag heute</tspan><tspan
           sodipodi:role="line"
           x="1097.3463"
           y="51.153713"
           style="font-size:6px;font-style:normal;font-variant:normal;font-weight:normal;font-stretch:normal;text-align:center;line-height:125%;writing-mode:lr-tb;text-anchor:middle;fill:#ffb12c;fill-opacity:0.77254903;font-family:Sans;-inkscape-font-specification:Sans"
           id="tspan5153">in t€</tspan></text>
      <path
         style="fill:#ffffff;fill-opacity:1;stroke:#ffffff;stroke-width:0.5025571px;stroke-linecap:butt;stroke-linejoin:miter;stroke-opacity:1"
         d="m 1070.5045,27.966101 16.6711,0"
         id="path5303"
         inkscape:connector-curvature="0" />
    </g>
    <path
       style="fill:#000000;fill-opacity:1;stroke:none"
       d="M 50 0 C 22.385762 6.1617378e-015 1.2499407e-016 22.385762 0 50 C -2.3129646e-018 77.614238 22.385762 100 50 100 C 77.614238 100 100 77.614238 100 50 C 100 22.385762 77.614238 -1.0149773e-014 50 0 z M 50 5 C 74.852814 5 95 25.147186 95 50 C 95 74.852814 74.852814 95 50 95 C 25.147186 95 5 74.852814 5 50 C 5 25.147186 25.147186 5 50 5 z "
       id="path4417" />
    <g
       id="g4739" />
    <text
       sodipodi:linespacing="125%"
       id="text5291"
       y="47.615238"
       x="31.55451"
       style="font-size:8px;font-style:normal;font-variant:normal;font-weight:normal;font-stretch:normal;line-height:125%;letter-spacing:0px;word-spacing:0px;fill:#ffffff;fill-opacity:1;stroke:none;font-family:Sans;-inkscape-font-specification:Sans"
       xml:space="preserve"><tspan
         style="font-size:8px;font-style:normal;font-variant:normal;font-weight:normal;font-stretch:normal;text-align:center;text-anchor:middle;fill:#ffffff;font-family:Sans;-inkscape-font-specification:Sans"
         y="47.615238"
         x="31.55451"
         id="tspan5293"
         sodipodi:role="line">+</tspan><tspan
         style="font-size:8px;font-style:normal;font-variant:normal;font-weight:normal;font-stretch:normal;text-align:center;text-anchor:middle;fill:#ffffff;font-family:Sans;-inkscape-font-specification:Sans"
         id="tspan5295"
         y="57.615238"
         x="31.55451"
         sodipodi:role="line">-</tspan></text>
    <path
       transform="translate(4.5,0)"
       d="m 318.15625,372.34375 c -12.94763,0 -23.53125,10.58362 -23.53125,23.53125 0,12.94763 10.58362,23.53125 23.53125,23.53125 12.94763,0 23.53125,-10.58362 23.53125,-23.53125 0,-12.94763 -10.58362,-23.53125 -23.53125,-23.53125 z"
       id="path4459"
       style="fill:#ff731c;fill-opacity:0.85767786;stroke:none;filter:url(#filter4469)"
       xlink:href="#path4283-4"
       inkscape:original="M 318.15625 376.375 C 307.3867 376.375 298.65625 385.10545 298.65625 395.875 C 298.65625 406.64455 307.3867 415.375 318.15625 415.375 C 328.9258 415.375 337.65625 406.64455 337.65625 395.875 C 337.65625 385.10545 328.9258 376.375 318.15625 376.375 z "
       inkscape:radius="4.0301933"
       sodipodi:type="inkscape:offset"
       inkscape:href="#path4283-4" />
    <g
       id="indicator"
       inkscape:label="#g5207">
      <path
         style="fill:#ff731c;fill-opacity:1;stroke:#ffb12c;stroke-width:3.2464509;stroke-miterlimit:4;stroke-opacity:1;stroke-dasharray:none;filter:url(#filter4279)"
         d="m 120.63282,384.00212 424.74594,0 0,23.72012 -424.74594,0 -25.724163,-11.51382 z"
         id="rect4250-9"
         inkscape:connector-curvature="0"
         sodipodi:nodetypes="cccccc"
         transform="matrix(-0.09737626,0,0,0.18547829,103.84296,-23.458456)" />
      <path
         style="fill:#ffb12c;fill-opacity:0.77238805;stroke:#ffb12c;stroke-width:0.44383556;stroke-miterlimit:4;stroke-opacity:1;stroke-dasharray:none"
         d="m 91.507939,47.713105 -41.80431,0 0,4.504552 41.80431,0 2.531822,-2.186522 z"
         id="rect4250"
         inkscape:connector-curvature="0"
         sodipodi:nodetypes="cccccc" />
      <path
         transform="matrix(0.94399997,0,0,0.5834241,84.200006,27.233803)"
         d="m -30.932203,39.078571 a 5.2966104,8.5700951 0 1 1 -10.593221,0 5.2966104,8.5700951 0 1 1 10.593221,0 z"
         sodipodi:ry="8.5700951"
         sodipodi:rx="5.2966104"
         sodipodi:cy="39.078571"
         sodipodi:cx="-36.228813"
         id="path4775-1"
         style="fill:#ff892c;fill-opacity:0.77254902999999986;stroke:none;filter:url(#filter5155)"
         sodipodi:type="arc" />
      <path
         transform="matrix(0.94399997,0,0,0.5834241,84.200006,27.233803)"
         d="m -30.932203,39.078571 a 5.2966104,8.5700951 0 1 1 -10.593221,0 5.2966104,8.5700951 0 1 1 10.593221,0 z"
         sodipodi:ry="8.5700951"
         sodipodi:rx="5.2966104"
         sodipodi:cy="39.078571"
         sodipodi:cx="-36.228813"
         id="path4775"
         style="fill:#0e0e0e;fill-opacity:1;stroke:none"
         sodipodi:type="arc" />
    </g>
  </g>
</svg>
